<?xml version="1.0" encoding="utf-8"?>
<!-- Generator: Adobe Illustrator 27.9.0, SVG Export Plug-In . SVG Version: 6.00 Build 0)  -->
<svg version="1.1" id="Ebene_1" xmlns="http://www.w3.org/2000/svg" xmlns:xlink="http://www.w3.org/1999/xlink" x="0px" y="0px"
	 viewBox="0 0 630 107" style="enable-background:new 0 0 630 107;" xml:space="preserve">
<style type="text/css">
	.st0{clip-path:url(#SVGID_00000101078672509315980250000016815796312633664405_);}
	.st1{clip-path:url(#SVGID_00000151501865627002053440000009979543030774085789_);}
	.st2{fill:#2F2CF9;}
</style>
<g>
	<defs>
		<rect id="SVGID_1_" width="630" height="107"/>
	</defs>
	<clipPath id="SVGID_00000008140907949585389180000016422800947121801126_">
		<use xlink:href="#SVGID_1_"  style="overflow:visible;"/>
	</clipPath>
	<g style="clip-path:url(#SVGID_00000008140907949585389180000016422800947121801126_);">
		<g>
			<defs>
				<rect id="SVGID_00000137121120461586212420000004570752794416075414_" width="629.9" height="106"/>
			</defs>
			<clipPath id="SVGID_00000143577141597969237430000004927634175342796984_">
				<use xlink:href="#SVGID_00000137121120461586212420000004570752794416075414_"  style="overflow:visible;"/>
			</clipPath>
			<g style="clip-path:url(#SVGID_00000143577141597969237430000004927634175342796984_);">
				<path class="st2" d="M344.4,22.1c-0.9-0.9-2.2-1.3-4.4-1.3c-2.7,0-20.5,0-23.1,0.2c-14.6,0.8-27.6,4.2-27.6,17.3v40.6
					c0,3.1,0.7,6.3,5.8,6.3h4.3c2.3,0,5.1-1.1,5.1-6.2V39.8c0-4,0.9-5.3,11.1-5.3h23.6c2.7,0,6.3-0.6,6.3-5.6l0-1
					C345.6,25.1,345.6,23.3,344.4,22.1z"/>
				<path class="st2" d="M439.1,63.5c0-11.9-8.5-17.9-25.2-17.9h-30.2c-5.1,0-9.4-0.2-10.9-0.4c-4.1-0.7-4.4-2-4.4-4.1v-3.2
					c0-1.7,1.9-2.7,5.7-3.2c1-0.1,23.5-0.2,28.3-0.2h1.3c4.1,0,5.9-1.9,5.9-6.1V27c0-4.3-1.8-6.2-5.9-6.2c-15.6,0-30.6,0.8-34.6,1.6
					c-13,2.8-15.7,9.9-15.7,15.4v3.4c0,11.6,11,18.2,30.3,18.2h29.8c10.2,0,10.2,2.3,10.2,4.6v2.4c0,5-2.7,5.3-11.3,5.3h-52.8
					c-5.7,0-6.1,3.1-6.1,7.4c0,4.4,1.8,6.2,6.1,6.2h52.8c22.2,0,26.9-10.3,26.9-18.9L439.1,63.5z"/>
				<path class="st2" d="M629.9,63.5c0-11.9-8.5-17.9-25.2-17.9h-30.2c-5.1,0-9.4-0.2-10.9-0.4c-4.1-0.7-4.4-2-4.4-4.1v-3.2
					c0-1.7,1.9-2.7,5.7-3.2c1-0.1,23.5-0.2,28.3-0.2h1.3c4.1,0,5.9-1.9,5.9-6.1V27c0-4.3-1.8-6.2-5.9-6.2c-15.6,0-30.6,0.8-34.6,1.6
					c-13,2.8-15.7,9.9-15.7,15.4v3.4c0,11.6,11,18.2,30.3,18.2h29.8c10.2,0,10.2,2.3,10.2,4.6v2.4c0,5-2.7,5.3-11.3,5.3h-52.8
					c-5.7,0-6.1,3.1-6.1,7.4c0,4.4,1.8,6.2,6.1,6.2H603c22.2,0,26.9-10.3,26.9-18.9L629.9,63.5z"/>
				<path class="st2" d="M528.6,20.8H525c-5.1,0-5.8,3.2-5.8,6.3v44.6h-39.7c-9.6,0-15.6-2.8-15.6-7.2l0-37.4c0-4.3-1.8-6.2-5.9-6.2
					h-3.4c-5.2,0-5.9,3.2-5.9,6.3l0,16l0,0.1c0,0.2,0,0.3,0,0.5c0,0,0,13,0,21.7c0,4.9,2.1,9.8,5.9,13.4c3,2.9,8.5,6.4,17.6,6.4h47
					v14.5c0,4.4,1.7,6.2,5.8,6.2h3.6c4.1,0,5.9-1.9,5.9-6.2V27C534.4,22.6,532.7,20.8,528.6,20.8z"/>
				<path class="st2" d="M181.3,9.5l0-2.2c0-3.8-0.6-7.2-5.1-7.2h-4.9c-4.5,0-5.1,3.5-5.1,7.3v13.4h-38.3
					c-26.7,0-32.3,11.2-32.3,20.6c0,5.6,0,10.6,0,15.1c0,3.6,0,6.9,0,9.9c0,15.5,17.7,18.8,32.5,18.8h20.1c7.4,0,14.3-1.4,20.5-4.1
					c8.4-3.7,12.7-9.2,12.7-16.3V9.7C181.3,9.6,181.3,9.5,181.3,9.5z M110.9,64V39.8c0-2.1,4.5-5.4,16.6-5.4l38.7,0v30.2
					c0,5.8-10.5,7-19.3,7h-19c-5.1,0-9.1-0.3-11.1-0.8C112.8,69.8,110.9,67.5,110.9,64z"/>
				<path class="st2" d="M276.6,41.7c0-14.5-8.4-20.9-27.3-20.9l-28.5,0c-1,0-1.9,0-2.8,0c-6.4,0-11.9-0.1-16.5,2.2
					c-6.4,3.2-10.3,9.1-10.6,15.9v25.3c0,14.5,8.5,20.9,27.6,20.9l30.6,0c7.4-0.1,13.8-1.4,18.8-3.9c7.7-3.9,8.8-10.2,8.8-16.5
					L276.6,41.7z M206,40.9c0.2-2.1,2-3.8,5.6-5c2.9-1,5.9-1.5,9.4-1.5h24.3c7.9,0,16,2.4,16,6.4v24l0,0.3c-0.2,2.1-2,3.8-5.6,5h0
					c-2.9,1-6.1,1.5-9.4,1.5h-24.2c-7.9,0-16.1-2.4-16.1-6.4v-24L206,40.9z"/>
				<path class="st2" d="M70.5,20.8c-1.1,0-2.4,0-3.8,0c-3.4,0.1-7.6,0.1-12.7,0H35.4c-0.1,0-0.2,0-0.2,0c-4.7,0.1-5.6,2.9-5.6,5.3
					v3c0,2.4,1,5.4,6,5.4h18.6c13.1,0,16.7,0,16.7,11.2H22.4c-8.8,0-14.6,1.7-18,5c0,0-0.1,0.1-0.1,0.1C1.3,53.7,0,58,0,63.6l0,2.6
					c0,0,0,0,0,0l0,0.2C0,75,4.7,85.3,26.9,85.3H58c18.4,0,27.8-6.7,27.8-19.8V33.4C85.8,27,78.3,20.8,70.5,20.8z M68.9,69.5
					c-1.1,1-3.9,2.2-10.8,2.2H26.8c-2.5,0-4.4,0-6-0.2c-0.3,0-0.5-0.1-0.8-0.1c-0.6-0.1-1.2-0.2-1.7-0.4c-0.2-0.1-0.5-0.2-0.7-0.3
					c-0.1,0-0.2-0.1-0.3-0.1c-0.3-0.2-0.6-0.4-0.8-0.6c-0.6-0.6-0.9-1.4-1-2.4c0-0.4-0.1-0.8-0.1-1.2V64c0-0.8,0-1.6,0.4-2.2
					c0.7-1.4,3-2.4,9.6-2.4h0c0.1,0,0.1,0,0.2,0h45.2l0,2.8C70.9,65.9,70.3,68.4,68.9,69.5z"/>
			</g>
		</g>
	</g>
</g>
</svg>
