<?xml version="1.0" encoding="UTF-8" standalone="no"?>
<!DOCTYPE svg PUBLIC "-//W3C//DTD SVG 1.1//EN" "http://www.w3.org/Graphics/SVG/1.1/DTD/svg11.dtd">
<svg width="100%" height="100%" viewBox="0 0 270 270" version="1.1" xmlns="http://www.w3.org/2000/svg"
     xml:space="preserve"
     style="fill-rule:evenodd;clip-rule:evenodd;stroke-linejoin:round;stroke-miterlimit:2;">
    <g>
        <path d="M173.564,89.381C171.966,89.381 170.165,89.414 168.156,89.451C163.385,89.54 157.45,89.65 150.249,89.381L124.137,89.381C124.026,89.381 123.925,89.39 123.789,89.404C117.229,89.578 115.853,93.527 115.853,96.81L115.853,101.066C115.853,104.512 117.327,108.619 124.349,108.619L150.608,108.619C169.132,108.619 174.135,108.595 174.135,124.422L105.81,124.422C93.381,124.422 85.278,126.784 80.39,131.467C80.351,131.504 80.309,131.539 80.27,131.576C75.969,135.773 74.206,141.806 74.205,149.652L74.177,153.339L74.175,153.608C74.175,165.762 80.751,180.238 112.084,180.238L155.996,180.238C181.966,180.238 195.135,170.858 195.135,152.36L195.135,107.154C195.135,98.018 184.651,89.381 173.564,89.381ZM171.405,158.026C169.82,159.424 165.885,161.091 156.142,161.091L111.997,161.091C108.533,161.091 105.751,161.062 103.542,160.854C103.153,160.818 102.782,160.775 102.428,160.726C101.546,160.605 100.772,160.443 100.096,160.229C99.753,160.12 99.436,159.998 99.143,159.861C99.017,159.802 98.895,159.74 98.778,159.675C98.356,159.442 97.987,159.173 97.673,158.858C96.862,158.041 96.401,156.927 96.216,155.408C96.15,154.874 96.118,154.291 96.118,153.651L96.118,150.334C96.118,149.221 96.122,148.129 96.638,147.165C97.677,145.226 100.808,143.807 110.23,143.785L110.232,143.785C110.304,143.785 110.371,143.784 110.444,143.784L174.203,143.784L174.216,147.753C174.216,152.974 173.276,156.424 171.405,158.026Z"
              style="fill:rgb(47,44,249);fill-rule:nonzero;"/>
    </g>
</svg>
